
        <svg xmlns="http://www.w3.org/2000/svg" xmlns:xlink="http://www.w3.org/1999/xlink" version="1.1" width="3168.5393258426966" 
        height="1095.5056179775281" viewBox="0 0 3168.5393258426966 1095.5056179775281">
			<rect fill="#e2d1f9" width="3168.5393258426966" height="1095.5056179775281"/>
			<g transform="scale(8.426966292134832) translate(10, 10)">
				<defs id="SvgjsDefs1038"></defs><g id="SvgjsG1039" featureKey="symbolFeature-0" transform="matrix(1.0529859049700143,0,0,1.0529859049700143,-2.6492975079633503,5.490224058356397)" fill="#317773"><title xmlns="http://www.w3.org/2000/svg">education-fund</title><path xmlns="http://www.w3.org/2000/svg" d="M43.87,30.45H42.15c.05,1.8,1.54,2.87,3.5,3v1.21h.86V33.45c2-.14,3.45-1.22,3.45-3,0-1.6-1.06-2.41-3-2.86l-.41-.1V24.62a1.66,1.66,0,0,1,1.6,1.47h1.72c-.06-1.7-1.39-2.83-3.32-3V21.88h-.86V23.1c-1.93.14-3.31,1.25-3.31,3,0,1.55,1,2.4,2.93,2.84l.38.09v2.94A1.76,1.76,0,0,1,43.87,30.45Zm2.64-1.25c1.27.31,1.67.69,1.67,1.39s-.52,1.26-1.67,1.36Zm-2.39-3.3c0-.62.53-1.16,1.53-1.29v2.64C44.56,27,44.12,26.54,44.12,25.9Z"></path><path xmlns="http://www.w3.org/2000/svg" d="M96.62,44.36,61.53,29.11a1.42,1.42,0,1,0-1.13,2.6L92.49,45.66,50,64.13,7.51,45.66l28-12.16a12.22,12.22,0,1,0-1-2.66L3.38,44.36a1.41,1.41,0,0,0,0,2.6l20.93,9.1V73.14a1.4,1.4,0,0,0,1,1.34,75.77,75.77,0,0,0,24.4,4,82,82,0,0,0,25-4,1.43,1.43,0,0,0,1-1.35V60.39a1.42,1.42,0,0,0-2.84,0v11.7c-15.57,4.79-30.94,4.79-45.71,0V57.29L49.43,67a1.41,1.41,0,0,0,1.14,0L87.7,50.84v6l-3,20.47a1.41,1.41,0,0,0,.7,1.44,7.17,7.17,0,0,0,3.55,1,6.51,6.51,0,0,0,3.47-1,1.42,1.42,0,0,0,.66-1.39l-2.6-20.48V49.61L96.62,47a1.41,1.41,0,0,0,0-2.6ZM46,19.08a9,9,0,1,1-9,9A9,9,0,0,1,46,19.08Zm41.68,57.6L89,67.52l1.16,9.18A3.37,3.37,0,0,1,87.71,76.68Z"></path><path xmlns="http://www.w3.org/2000/svg" d="M37.35,45.74a1.42,1.42,0,0,0,1.42,1.42H61.23a1.42,1.42,0,0,0,0-2.84H38.77A1.43,1.43,0,0,0,37.35,45.74Z"></path></g><g id="SvgjsG1040" featureKey="textGroupContainer" transform="matrix(1,0,0,1,355,0)" fill="#317773"><rect xmlns="http://www.w3.org/2000/svg" y="0" height="1" width="1" opacity="0"></rect><rect xmlns="http://www.w3.org/2000/svg" y="0" x="-235" width="3" height="110"></rect></g><g id="SvgjsG1041" featureKey="nameFeature-0" transform="matrix(1.072868225683764,0,0,1.072868225683764,134.56328121348574,16.328594297228012)" fill="#317773"><path d="M15.84 11.289000000000001 c5.8789 0 9.4727 4.3164 9.4727 9.5898 c0 5.4102 -3.5938 9.3945 -9.4727 9.3945 l-5.1953 0 l0 9.7266 l-7.4414 0 l0 -28.711 l12.637 0 z M14.551 24.121000000000002 c2.6563 0 3.6914 -1.25 3.6914 -3.3594 c0 -1.9922 -1.0352 -3.3203 -3.6914 -3.3203 l-3.9063 0 l0 6.6797 l3.9063 0 z M28.41940859375 40 l0 -28.711 l7.4414 0 l0 28.711 l-7.4414 0 z M70.2568671875 41.0352 l-6.0547 2.3633 l-3.5352 -4.082 c-1.8555 0.70313 -3.9453 1.0742 -6.1719 1.0742 c-8.8086 0 -15.176 -5.8789 -15.176 -14.746 c0 -8.9258 6.3672 -14.766 15.176 -14.766 c8.8281 0 15.195 5.8398 15.195 14.766 c0 4.1406 -1.3867 7.6367 -3.7695 10.176 z M46.7216671875 25.645 c0 5.3125 3.3203 8.3984 7.7734 8.3984 c4.4727 0 7.793 -3.0859 7.793 -8.3984 c0 -4.9219 -3.3203 -8.0078 -7.793 -8.0078 c-4.4531 0 -7.7734 3.0859 -7.7734 8.0078 z M84.67189453125 40.39063 c-6.5625 0 -11.758 -2.9883 -11.758 -10.781 l0 -18.32 l7.4414 0 l0 17.305 c0 4.082 1.9141 5.293 4.3164 5.293 s4.3164 -1.2109 4.3164 -5.293 l0 -17.305 l7.4414 0 l0 18.32 c0 7.793 -5.1953 10.781 -11.758 10.781 z M118.697734375 17.754 l-10 0 l0 4.6875 l8.9063 0 l0 6.4063 l-8.9063 0 l0 4.6289 l10 0 l0 6.5234 l-17.441 0 l0 -28.711 l17.441 0 l0 6.4648 z M133.28851171875 40.39063 c-6.2891 0 -11.406 -3.0273 -12.207 -8.7891 l7.7148 -1.7578 c0.21484 3.125 2.168 4.5898 4.8047 4.5898 c1.9141 0 3.0859 -0.91797 3.0859 -2.5586 c0 -2.1484 -2.7539 -2.9492 -5.957 -4.043 c-4.043 -1.3477 -8.5742 -3.0273 -8.5742 -8.3203 c0 -5.3516 4.3359 -8.6328 10.527 -8.6328 c5.0391 0 10.527 1.9922 11.719 7.9297 l-7.1484 1.7578 c-0.41016 -2.5977 -1.7773 -3.7305 -4.082 -3.7305 c-2.0508 0 -3.4961 0.80078 -3.4961 2.4805 c0 1.6016 2.5781 2.2461 5.5273 3.2031 c4.1211 1.3672 9.1992 3.2422 9.1992 8.9258 c0 6.3086 -5.3125 8.9453 -11.113 8.9453 z M165.7510078125 11.289000000000001 l0 6.4648 l-6.4844 0 l0 22.246 l-7.3633 0 l0 -22.246 l-6.5039 0 l0 -6.4648 l20.352 0 z M178.50628515625 40.39063 c-6.2891 0 -11.406 -3.0273 -12.207 -8.7891 l7.7148 -1.7578 c0.21484 3.125 2.168 4.5898 4.8047 4.5898 c1.9141 0 3.0859 -0.91797 3.0859 -2.5586 c0 -2.1484 -2.7539 -2.9492 -5.957 -4.043 c-4.043 -1.3477 -8.5742 -3.0273 -8.5742 -8.3203 c0 -5.3516 4.3359 -8.6328 10.527 -8.6328 c5.0391 0 10.527 1.9922 11.719 7.9297 l-7.1484 1.7578 c-0.41016 -2.5977 -1.7773 -3.7305 -4.082 -3.7305 c-2.0508 0 -3.4961 0.80078 -3.4961 2.4805 c0 1.6016 2.5781 2.2461 5.5273 3.2031 c4.1211 1.3672 9.1992 3.2422 9.1992 8.9258 c0 6.3086 -5.3125 8.9453 -11.113 8.9453 z"></path></g><g id="SvgjsG1042" featureKey="sloganFeature-0" transform="matrix(0.5663423761150357,0,0,0.5663423761150357,136.9657455479858,69.7756365988477)" fill="#317773"><path d="M4.7559 17.4121 l4.4238 0 l0 2.5879 l-7.3535 0 l0 -14.111 l2.9297 0 l0 11.523 z M21.870351562499998 8.467 l-5.2344 0 l0 3.2031 l4.6387 0 l0 2.5488 l-4.6387 0 l0 3.1934 l5.2344 0 l0 2.5879 l-8.1836 0 l0 -14.111 l8.1836 0 l0 2.5781 z M36.602031249999996 20 l-1.0254 -2.9102 l-5.9277 0 l-1.0254 2.9102 l-2.998 0 l5.1953 -14.111 l3.584 0 l5.1953 14.111 l-2.998 0 z M30.50783125 14.6387 l4.209 0 l-2.0996 -5.9863 z M51.4403859375 20 l-3.6719 -6.2109 l-0.84961 0 l0 6.2109 l-2.9297 0 l0 -14.111 l5.1172 0 c3.1934 0 4.541 1.8848 4.541 4.2188 c0 1.8945 -1.0742 3.125 -2.9883 3.5352 l4.248 6.3574 l-3.4668 0 z M46.9189859375 8.32 l0 3.3691 l1.7285 0 c1.5625 0 2.1973 -0.66406 2.1973 -1.6797 c0 -1.0059 -0.63477 -1.6895 -2.1973 -1.6895 l-1.7285 0 z M68.965 5.888999999999999 l2.9199 0 l0 14.111 l-3.3887 0 l-6.25 -10.088 l0 10.088 l-2.9199 0 l0 -14.111 l3.3496 0 l6.2891 10.029 l0 -10.029 z M79.4091453125 23.5938 l-2.0117 0 l1.2207 -6.3867 l2.8906 0 z M102.2902734375 8.467 l-5.2344 0 l0 3.2031 l4.6387 0 l0 2.5488 l-4.6387 0 l0 3.1934 l5.2344 0 l0 2.5879 l-8.1836 0 l0 -14.111 l8.1836 0 l0 2.5781 z M117.021953125 20 l-1.0254 -2.9102 l-5.9277 0 l-1.0254 2.9102 l-2.998 0 l5.1953 -14.111 l3.584 0 l5.1953 14.111 l-2.998 0 z M110.927753125 14.6387 l4.209 0 l-2.0996 -5.9863 z M131.8603078125 20 l-3.6719 -6.2109 l-0.84961 0 l0 6.2109 l-2.9297 0 l0 -14.111 l5.1172 0 c3.1934 0 4.541 1.8848 4.541 4.2188 c0 1.8945 -1.0742 3.125 -2.9883 3.5352 l4.248 6.3574 l-3.4668 0 z M127.3389078125 8.32 l0 3.3691 l1.7285 0 c1.5625 0 2.1973 -0.66406 2.1973 -1.6797 c0 -1.0059 -0.63477 -1.6895 -2.1973 -1.6895 l-1.7285 0 z M149.384921875 5.888999999999999 l2.9199 0 l0 14.111 l-3.3887 0 l-6.25 -10.088 l0 10.088 l-2.9199 0 l0 -14.111 l3.3496 0 l6.2891 10.029 l0 -10.029 z M159.8290671875 23.5938 l-2.0117 0 l1.2207 -6.3867 l2.8906 0 z M180.7763953125 20.19531 c-4.1504 0 -7.2168 -2.8223 -7.2168 -7.2559 s3.0664 -7.2461 7.2168 -7.2461 c3.1445 0 5.6641 1.6113 6.6699 4.2871 l-2.7344 0.99609 c-0.625 -1.6406 -2.1191 -2.5879 -3.9355 -2.5879 c-2.4316 0 -4.2969 1.6992 -4.2969 4.5508 s1.8652 4.5605 4.2969 4.5605 c1.8164 0 3.3105 -0.95703 3.9355 -2.5977 l2.7344 0.99609 c-1.0059 2.6758 -3.5254 4.2969 -6.6699 4.2969 z M199.57026875 20 l-3.6719 -6.2109 l-0.84961 0 l0 6.2109 l-2.9297 0 l0 -14.111 l5.1172 0 c3.1934 0 4.541 1.8848 4.541 4.2188 c0 1.8945 -1.0742 3.125 -2.9883 3.5352 l4.248 6.3574 l-3.4668 0 z M195.04886875 8.32 l0 3.3691 l1.7285 0 c1.5625 0 2.1973 -0.66406 2.1973 -1.6797 c0 -1.0059 -0.63477 -1.6895 -2.1973 -1.6895 l-1.7285 0 z M215.6398828125 8.467 l-5.2344 0 l0 3.2031 l4.6387 0 l0 2.5488 l-4.6387 0 l0 3.1934 l5.2344 0 l0 2.5879 l-8.1836 0 l0 -14.111 l8.1836 0 l0 2.5781 z M230.3715625 20 l-1.0254 -2.9102 l-5.9277 0 l-1.0254 2.9102 l-2.998 0 l5.1953 -14.111 l3.584 0 l5.1953 14.111 l-2.998 0 z M224.2773625 14.6387 l4.209 0 l-2.0996 -5.9863 z M245.9426171875 5.888999999999999 l0 2.5781 l-3.3496 0 l0 11.533 l-2.9004 0 l0 -11.533 l-3.3691 0 l0 -2.5781 l9.6191 0 z M258.613515625 8.467 l-5.2344 0 l0 3.2031 l4.6387 0 l0 2.5488 l-4.6387 0 l0 3.1934 l5.2344 0 l0 2.5879 l-8.1836 0 l0 -14.111 l8.1836 0 l0 2.5781 z M265.2880953125 20.19531 c-0.86914 0 -1.6016 -0.72266 -1.6016 -1.6016 s0.73242 -1.6211 1.6016 -1.6211 c0.88867 0 1.6211 0.74219 1.6211 1.6211 s-0.73242 1.6016 -1.6211 1.6016 z M274.003915625 20.19531 c-0.86914 0 -1.6016 -0.72266 -1.6016 -1.6016 s0.73242 -1.6211 1.6016 -1.6211 c0.88867 0 1.6211 0.74219 1.6211 1.6211 s-0.73242 1.6016 -1.6211 1.6016 z M282.7197359375 20.19531 c-0.86914 0 -1.6016 -0.72266 -1.6016 -1.6016 s0.73242 -1.6211 1.6016 -1.6211 c0.88867 0 1.6211 0.74219 1.6211 1.6211 s-0.73242 1.6016 -1.6211 1.6016 z"></path></g>
			</g>
		</svg>
	